<?xml version="1.0" standalone="no"?><!DOCTYPE svg PUBLIC "-//W3C//DTD SVG 1.1//EN" "http://www.w3.org/Graphics/SVG/1.1/DTD/svg11.dtd"><svg t="1745141444110" class="icon" viewBox="0 0 1024 1024" version="1.1" xmlns="http://www.w3.org/2000/svg" p-id="27554" xmlns:xlink="http://www.w3.org/1999/xlink" width="200" height="200"><path d="M1024 546.133333c0-225.28-184.32-409.6-409.6-409.6H546.133333V0H477.866667v136.533333H409.6C184.32 136.533333 0 320.853333 0 546.133333s184.32 409.6 409.6 409.6h232.106667l273.066666 68.266667c13.653333 0 27.306667 0 34.133334-6.826667 6.826667-6.826667 13.653333-20.48 6.826666-34.133333l-40.96-157.013333C983.04 750.933333 1024 655.36 1024 546.133333zM68.266667 546.133333c0-191.146667 150.186667-341.333333 341.333333-341.333333h204.8c191.146667 0 341.333333 150.186667 341.333333 341.333333 0 95.573333-40.96 184.32-102.4 245.76l27.306667 27.306667-27.306667-27.306667-13.653333 13.653334 6.826667 20.48 27.306666 122.88-204.8-54.613334c-6.826667-6.826667-13.653333-6.826667-20.48-6.826666H409.6c-191.146667 0-341.333333-150.186667-341.333333-341.333334z m443.733333 68.266667C607.573333 614.4 682.666667 539.306667 682.666667 443.733333S607.573333 273.066667 512 273.066667 341.333333 348.16 341.333333 443.733333 416.426667 614.4 512 614.4z m0-273.066667C566.613333 341.333333 614.4 389.12 614.4 443.733333S566.613333 546.133333 512 546.133333 409.6 498.346667 409.6 443.733333 457.386667 341.333333 512 341.333333z m191.146667 409.6c-54.613333 40.96-116.053333 68.266667-191.146667 68.266667-75.093333 0-136.533333-27.306667-191.146667-68.266667l40.96-54.613333c40.96 34.133333 95.573333 54.613333 150.186667 54.613333s109.226667-20.48 150.186667-54.613333l40.96 54.613333z" fill="#d31145" p-id="27555"></path></svg>